<?xml version="1.0" encoding="utf-8"?>
<!-- Generator: Adobe Illustrator 26.0.2, SVG Export Plug-In . SVG Version: 6.00 Build 0)  -->
<svg version="1.1" xmlns="http://www.w3.org/2000/svg" xmlns:xlink="http://www.w3.org/1999/xlink" x="0px" y="0px"
	 viewBox="0 0 2048 2048" style="enable-background:new 0 0 2048 2048;" xml:space="preserve">
<style type="text/css">
	.st0{fill:#FFFFFF;}
	.st1{fill:#FFFFFF;stroke:#000000;stroke-miterlimit:10;}
	.st2{fill:#9A3412;stroke:#FFFFFF;stroke-miterlimit:10;}
	.st3{fill:#9A3412;stroke:#7C2D12;stroke-width:3;stroke-miterlimit:10;}
	.st4{fill:none;stroke:#FBBF24;stroke-width:40;stroke-miterlimit:10;}
	.st5{fill:#111827;}
	.st6{fill:none;stroke:#111827;stroke-width:100;stroke-miterlimit:10;}
</style>
<g id="Layer_6">
	<rect class="st0" width="2048" height="2048"/>
</g>
<g id="Layer_2">
	<path class="st1" d="M1085.84,696.69c94.22,11.71,189.77-19.25,271.09-68.25s150.59-115.27,219.13-180.97
		c66.41-63.66,132.81-127.32,199.22-190.98c0,0-12.8,1220.16-7.14,1224.02c-93.53,96.2-212.48,167.45-341.43,204.51
		c-19.17,5.51-38.56,10.28-58.23,13.55c-37.9,6.3-76.52,7-114.92,5.99c-68-1.79-136.43-9-201.16-29.94L1085.84,696.69z"/>
	<path class="st1" d="M1079.05,724.23c94.22,11.71,189.77-19.25,271.09-68.25c81.32-49,150.59-115.27,219.13-180.97
		c66.41-63.66,132.81-127.32,199.22-190.98c0,0-12.8,1220.16-7.14,1224.02c-93.53,96.2-212.48,167.45-341.43,204.51
		c-19.17,5.51-38.56,10.28-58.23,13.55c-37.9,6.3-76.52,7-114.92,5.99c-68-1.79-136.43-9-201.16-29.94L1079.05,724.23z"/>
	<path class="st1" d="M1079.05,754.02c94.22,11.71,189.77-19.25,271.09-68.25s150.59-115.27,219.13-180.97
		c66.41-63.66,132.81-127.32,199.22-190.98c0,0-12.8,1220.16-7.14,1224.02c-93.53,96.2-212.48,167.45-341.43,204.51
		c-19.17,5.51-38.56,10.28-58.23,13.55c-37.9,6.3-76.52,7-114.92,5.99c-68-1.79-136.43-9-201.16-29.94L1079.05,754.02z"/>
</g>
<g id="Layer_3">
	<path class="st1" d="M962.38,695.57c-94.22,11.71-189.77-19.25-271.09-68.25S540.69,512.05,472.16,446.35
		c-66.41-63.66-132.81-127.32-199.22-190.98c0,0,12.8,1220.16,7.14,1224.02c93.53,96.2,212.48,167.45,341.43,204.51
		c19.17,5.51,38.56,10.28,58.23,13.55c37.9,6.3,76.52,7,114.92,5.99c68-1.79,136.43-9,201.16-29.94L962.38,695.57z"/>
	<path class="st1" d="M969.17,723.11c-94.22,11.71-189.77-19.25-271.09-68.25c-81.32-49-150.59-115.27-219.13-180.97
		c-66.41-63.66-132.81-127.32-199.22-190.98c0,0,12.8,1220.16,7.14,1224.02c93.53,96.2,212.48,167.45,341.43,204.51
		c19.17,5.51,38.56,10.28,58.23,13.55c37.9,6.3,76.52,7,114.92,5.99c68-1.79,136.43-9,201.16-29.94L969.17,723.11z"/>
	<path class="st1" d="M969.17,752.9c-94.22,11.71-189.77-19.25-271.09-68.25S547.48,569.38,478.95,503.68
		c-66.41-63.66-132.81-127.32-199.22-190.98c0,0,12.8,1220.16,7.14,1224.02c93.53,96.2,212.48,167.45,341.43,204.51
		c19.17,5.51,38.56,10.28,58.23,13.55c37.9,6.3,76.52,7,114.92,5.99c68-1.79,136.43-9,201.16-29.94L969.17,752.9z"/>
</g>
<g id="Layer_1">
	<g>
		<path class="st2" d="M956.26,784.38c-94.22,11.71-189.77-19.25-271.09-68.25c-81.32-49-150.59-115.27-219.13-180.97
			c-66.41-63.66-132.81-127.32-199.22-190.98c0,0,12.8,1220.16,7.14,1224.02c93.53,96.2,212.48,167.45,341.43,204.51
			c19.17,5.51,38.56,10.28,58.23,13.55c37.9,6.3,76.52,7,114.92,5.99c68-1.79,136.43-9,201.16-29.94L956.26,784.38z"/>
		<path class="st2" d="M1091.74,784.38c94.22,11.71,189.77-19.25,271.09-68.25c81.32-49,150.59-115.27,219.13-180.97
			c66.41-63.66,132.81-127.32,199.22-190.98c0,0-12.8,1220.16-7.14,1224.02c-93.53,96.2-212.48,167.45-341.43,204.51
			c-19.17,5.51-38.56,10.28-58.23,13.55c-37.9,6.3-76.52,7-114.92,5.99c-68-1.79-136.43-9-201.16-29.94L1091.74,784.38z"/>
		<line class="st2" x1="956.26" y1="784.38" x2="1091.74" y2="784.32"/>
		<polyline class="st2" points="989.39,1762.19 989.47,1762.12 1058.3,1762.31 		"/>
	</g>
	<rect x="944" y="778.15" class="st3" width="160" height="1004"/>
</g>
<g id="Layer_4">
	<rect x="649" y="905.15" class="st4" width="750" height="750"/>
	<polyline class="st4" points="1156.75,1180.95 1330.72,1325.27 1139.94,1435.98 	"/>
	<polyline class="st4" points="881.83,1180.95 707.85,1325.27 898.63,1435.98 	"/>
	<line class="st4" x1="1104.56" y1="1019.33" x2="943.44" y2="1597.6"/>
</g>
<g id="Layer_5">
	<g>
		<g>
			<g>
				<ellipse class="st5" cx="321.47" cy="1364.57" rx="260" ry="365"/>
				<ellipse class="st5" cx="1726.53" cy="1364.57" rx="260" ry="365"/>
				<path class="st6" d="M289.39,1342.31c0-344.08,37.41-1023.88,713.23-1023.88c693.81,0,742.06,691.26,742.06,1036.09"/>
			</g>
		</g>
	</g>
</g>
</svg>
